<svg xmlns="http://www.w3.org/2000/svg" viewBox="0 0 185.6 111.54"><defs><style>.cls-1{fill:#eb0433;}.cls-1,.cls-2{stroke:#000;stroke-miterlimit:10;}.cls-2{fill:#fff;}</style></defs><g id="Capa_2" data-name="Capa 2"><g id="Capa_2-2" data-name="Capa 2"><polygon class="cls-1" points="27.69 47.44 92.95 110.85 159.43 46.94 27.69 47.44"/><path class="cls-1" d="M163.52.5H93.36c-17.72,0-53.7,0-71.31,0-23.34,0-30,31.84-8.62,41.29A195.89,195.89,0,0,0,92.86,58.5a195.88,195.88,0,0,0,79.3-16.66C193.53,32.4,186.89.5,163.52.5Zm-1.63,40c-41.74,19.2-96.48,19.18-138.2,0C5.11,32.22,10.87,4.5,31.2,4.5H60.1c20.68,0,73,0,94.28,0C174.73,4.5,180.51,32.28,161.89,40.5Z"/><path class="cls-2" d="M154.38,4.5H93.28c-15.42,0-46.75,0-62.08,0-20.33,0-26.09,27.72-7.51,36A170.47,170.47,0,0,0,92.85,55a170.53,170.53,0,0,0,69-14.5C180.51,32.28,174.73,4.5,154.38,4.5Z"/></g></g></svg>